<svg width="56" height="56" viewBox="0 0 56 56" fill="none" xmlns="http://www.w3.org/2000/svg">
<path d="M34.1896 28.0002V34.1992H28.0003C24.5756 34.2055 21.7949 31.4345 21.7891 28.0099C21.7832 24.5858 24.5543 21.805 27.9789 21.7992C31.403 21.7929 34.1838 24.5644 34.1896 27.9885V28.0002Z" fill="#8A2943"/>
<path d="M43.6591 43.6904H27.9978C19.3288 43.6705 12.3171 36.6267 12.3371 27.9577C12.3526 21.3492 16.5052 15.458 22.7237 13.2229V8.52654C22.7237 8.32471 22.8876 8.16083 23.0895 8.16083C23.1872 8.16083 23.2811 8.20022 23.3496 8.27025L25.8629 10.8244C26.0044 10.9683 26.2359 10.9703 26.3799 10.8288C26.393 10.8156 26.4051 10.802 26.4158 10.7869L27.706 9.06197C27.8252 8.89905 28.0542 8.86404 28.2167 8.98319C28.2468 9.00556 28.2731 9.03181 28.2954 9.06197L29.5871 10.7869C29.7077 10.9489 29.9358 10.9824 30.0972 10.8623C30.1128 10.8506 30.1269 10.838 30.1405 10.8244L32.6548 8.27025C32.7963 8.1263 33.0278 8.12435 33.1712 8.26636C33.2413 8.33493 33.2802 8.42879 33.2802 8.52654V13.2229C39.5103 15.4653 43.6615 21.3783 43.6542 27.9995L43.6591 43.6904ZM38.6486 0H17.35C7.79002 0.0107002 0.0488766 7.76837 0.0586029 17.3283V38.6722C0.0508219 48.2311 7.79099 55.9874 17.35 56H55.9395V17.3283C55.9502 7.76886 48.21 0.0107002 38.6505 0H38.6486Z" fill="#8A2943"/>
</svg>
