<svg width="150" height="42" viewBox="0 0 150 42" fill="none" xmlns="http://www.w3.org/2000/svg">
<rect width="150" height="42" fill="#1E1E1E"/>
<rect x="-1605" y="-2081" width="23336" height="6393" rx="93" stroke="#388392" stroke-width="10"/>
<g clip-path="url(#clip0_65_10070)">
<rect width="1440" height="5380" transform="translate(-1117 -1541)" fill="#FAFAFA"/>
<g filter="url(#filter0_d_65_10070)">
<rect x="-25" y="-29" width="200" height="100" rx="16" fill="white" shape-rendering="crispEdges"/>
<g clip-path="url(#clip1_65_10070)">
<path d="M140.13 30.1931H149.02V27.2778H140.129C140.464 28.2201 140.464 29.2507 140.129 30.1931" fill="#1D1D1B"/>
<path d="M61.2777 11.8054H53.8945V30.1889H60.757C65.1822 30.1889 66.9264 28.1667 66.9264 24.7C66.9264 21.6262 64.6875 20.5754 64.6875 20.5754C65.2865 20.1665 65.7758 19.6145 66.112 18.9684C66.4481 18.3223 66.6205 17.6023 66.6138 16.8726C66.6138 13.7726 64.8956 11.8027 61.2777 11.8027V11.8054ZM61.5634 14.718C62.9432 14.718 63.6176 15.611 63.6176 16.9249C63.6176 18.4217 62.6539 19.2102 61.2482 19.2102H56.9141V14.7224L61.5634 14.718ZM56.9141 22.0993H61.2509C63.2818 22.0993 63.855 23.3068 63.855 24.7C63.855 26.4329 63.2299 27.2737 60.8615 27.2737H56.9141V22.0993ZM80.1199 11.8054H77.0736V30.1889H80.1199V11.8054ZM92.2781 11.8054V30.1889H104.06V27.2782H95.3239V11.8054H92.2781ZM114.042 11.8054V30.1889H125.824V27.2782H117.084V11.8054H114.042Z" fill="#1D1D1B"/>
<path d="M144.77 14.4039L144.529 14.722L135.956 25.9764C135.426 26.0057 134.918 26.1891 134.49 26.5043C134.062 26.8196 133.734 27.2533 133.546 27.7529C133.358 28.2524 133.317 28.7964 133.429 29.3188C133.54 29.8413 133.8 30.3198 134.176 30.6962C134.552 31.0728 135.029 31.3312 135.547 31.4401C136.066 31.5492 136.604 31.5041 137.098 31.3103C137.592 31.1165 138.019 30.7824 138.328 30.3485C138.637 29.9146 138.815 29.3994 138.84 28.8655C138.864 28.3985 138.769 27.9331 138.564 27.5138L139.566 26.2036L147.363 16.0205C147.948 15.9981 148.511 15.7866 148.969 15.417C149.426 15.0475 149.754 14.5394 149.903 13.9679C150.053 13.3963 150.017 12.7913 149.8 12.2421C149.583 11.6928 149.197 11.2284 148.699 10.9172C148.201 10.606 147.616 10.4644 147.033 10.5134C146.449 10.5623 145.896 10.7992 145.455 11.1891C145.015 11.579 144.71 12.1013 144.586 12.6792C144.462 13.2569 144.526 13.8596 144.767 14.3985" fill="#1D1D1B"/>
<path d="M143.238 11.8052H134.617V14.7204H143.238C142.903 13.778 142.903 12.7475 143.238 11.8052Z" fill="#1D1D1B"/>
<path d="M28.1726 0H13.4478C6.02078 0 0 6.07569 0 13.5705V28.4295C0 35.9243 6.02078 42 13.4478 42H28.1726C35.5996 42 41.6204 35.9243 41.6204 28.4295V13.5705C41.6204 6.07569 35.5996 0 28.1726 0Z" fill="#0065FF"/>
<path d="M23.9358 14.3639L23.691 14.6856L15.0174 26.0762C14.4235 26.1095 13.8559 26.3349 13.3988 26.7191C12.9418 27.1033 12.6195 27.6259 12.4798 28.2093C12.3401 28.7928 12.3903 29.4061 12.6231 29.9585C12.8558 30.511 13.2587 30.973 13.7721 31.2763C14.2855 31.5796 14.882 31.7079 15.4733 31.6423C16.0647 31.5768 16.6193 31.3208 17.0552 30.9122C17.491 30.5036 17.7849 29.9643 17.8932 29.3741C18.0015 28.7839 17.9185 28.1741 17.6565 27.6352L18.6665 26.3051L26.5569 16.0013C27.1502 15.9797 27.7208 15.7662 28.1846 15.3924C28.6485 15.0186 28.9809 14.5043 29.133 13.9253C29.2851 13.3464 29.2487 12.7333 29.0293 12.1768C28.8099 11.6202 28.4189 11.1497 27.9142 10.8343C27.4094 10.5191 26.8177 10.3758 26.2261 10.4258C25.6346 10.4757 25.0746 10.7161 24.6288 11.1116C24.183 11.5071 23.875 12.0367 23.7502 12.6224C23.6254 13.2079 23.6905 13.8185 23.9358 14.3639ZM22.3881 11.7353H13.6654V14.6856H22.3898C22.0512 13.7318 22.0512 12.6891 22.3898 11.7353H22.3881ZM19.2399 30.3396H28.2368V27.3892H19.2391C19.5782 28.3429 19.5782 29.3859 19.2391 30.3396H19.2399Z" fill="white"/>
</g>
</g>
</g>
<defs>
<filter id="filter0_d_65_10070" x="-37" y="-37" width="224" height="124" filterUnits="userSpaceOnUse" color-interpolation-filters="sRGB">
<feFlood flood-opacity="0" result="BackgroundImageFix"/>
<feColorMatrix in="SourceAlpha" type="matrix" values="0 0 0 0 0 0 0 0 0 0 0 0 0 0 0 0 0 0 127 0" result="hardAlpha"/>
<feOffset dy="4"/>
<feGaussianBlur stdDeviation="6"/>
<feComposite in2="hardAlpha" operator="out"/>
<feColorMatrix type="matrix" values="0 0 0 0 0 0 0 0 0 0 0 0 0 0 0 0 0 0 0.12 0"/>
<feBlend mode="normal" in2="BackgroundImageFix" result="effect1_dropShadow_65_10070"/>
<feBlend mode="normal" in="SourceGraphic" in2="effect1_dropShadow_65_10070" result="shape"/>
</filter>
<clipPath id="clip0_65_10070">
<rect width="1440" height="5380" fill="white" transform="translate(-1117 -1541)"/>
</clipPath>
<clipPath id="clip1_65_10070">
<rect width="150" height="42" fill="white"/>
</clipPath>
</defs>
</svg>
