<svg width="118" height="40" viewBox="0 0 118 40" fill="none" xmlns="http://www.w3.org/2000/svg">
<g id="logo">
<path id="Vector" d="M7.07026 14.5951C7.55806 15.4027 8.23832 16.076 9.04985 16.5544C9.85781 17.0314 10.7799 17.2789 11.7173 17.2704C12.2181 17.2836 12.7185 17.2314 13.2058 17.1151C13.5595 17.0196 13.8995 16.8792 14.2176 16.6972C14.5073 16.5032 14.8246 16.3542 15.1587 16.2553C15.4487 16.1707 15.749 16.1265 16.051 16.124C16.4747 16.1207 16.8937 16.212 17.2778 16.3914C17.6469 16.564 17.9786 16.8076 18.2542 17.1084C18.5352 17.4164 18.7571 17.7739 18.9086 18.1628C19.0679 18.5588 19.149 18.982 19.1475 19.4089C19.1461 19.9555 18.9889 20.4903 18.6946 20.9503C18.3927 21.4353 17.9322 21.8574 17.3131 22.2166C16.694 22.5757 15.9201 22.8633 14.9915 23.0793C14.0628 23.2857 12.9715 23.3889 11.7173 23.3889C10.158 23.3979 8.61353 23.0846 7.18013 22.4687C5.79367 21.879 4.52978 21.0337 3.45406 19.9764C2.38501 18.9169 1.52789 17.662 0.928935 16.2792C0.306264 14.8522 -0.0101408 13.3097 0.000284668 11.752C-0.0108622 10.1827 0.305469 8.62848 0.928935 7.18923C1.52778 5.80104 2.3844 4.53984 3.45311 3.4729C4.52456 2.41036 5.78951 1.56428 7.17917 0.980644C8.61446 0.370521 10.1586 0.0600299 11.7173 0.0680953C13.2591 0.0584035 14.7868 0.362992 16.2077 0.96339C17.5832 1.54064 18.8362 2.37613 19.8994 3.42497C20.9616 4.47861 21.8171 5.72297 22.4216 7.09338C23.0508 8.50765 23.3862 10.0356 23.4076 11.5842C23.4076 12.4923 23.1181 13.2211 22.5392 13.7707C21.9602 14.3203 21.2099 14.5951 20.2882 14.5951H7.07026ZM16.9109 9.29039C16.4762 8.34818 15.7795 7.55198 14.9045 6.99752C14.0128 6.42238 12.9886 6.13482 11.832 6.13482C10.6441 6.13482 9.6301 6.43421 8.78998 7.03299C7.96698 7.60456 7.30806 8.38301 6.87918 9.29039H16.9109Z" fill="#1E1E1E"/>
<path id="Vector_2" d="M47.6094 11.5601C47.618 10.02 47.9466 8.49862 48.5743 7.09316C49.1778 5.72536 50.0343 4.48479 51.0985 3.43722C52.166 2.39397 53.4179 1.55951 54.7902 0.976597C56.2091 0.375576 57.7339 0.0668811 59.2741 0.0688571C60.8142 0.0708331 62.3383 0.38344 63.7557 0.988099C65.1372 1.57789 66.3923 2.42965 67.4521 3.49665C68.5057 4.56729 69.3485 5.82781 69.9362 7.21202C70.5507 8.64557 70.8626 10.1913 70.8524 11.7518C70.8632 13.3083 70.5512 14.85 69.9362 16.279C68.7503 19.0656 66.5354 21.2834 63.7557 22.4675C62.3348 23.083 60.8024 23.3966 59.2548 23.3887C58.3239 23.3909 57.3963 23.2786 56.4927 23.0541C55.6099 22.8326 54.755 22.511 53.9446 22.0956V33.9415C53.9477 34.3858 53.871 34.8271 53.7182 35.2441C53.5763 35.635 53.3624 35.9956 53.0876 36.3072C52.8169 36.6102 52.4837 36.8506 52.1112 37.0117C51.5199 37.2658 50.8659 37.3344 50.235 37.2087C49.6041 37.0829 49.0259 36.7687 48.5762 36.3072C48.2789 35.9992 48.0408 35.6388 47.874 35.2441C47.698 34.8327 47.6086 34.3892 47.6113 33.9415L47.6094 11.5601ZM53.9685 11.7518C53.9635 12.4572 54.1054 13.1559 54.3851 13.8031C54.9315 15.0692 55.9479 16.0721 57.2188 16.5992C58.1803 17.0061 59.2408 17.1165 60.2651 16.9165C61.2894 16.7164 62.2312 16.2148 62.9703 15.4758C63.4486 14.9943 63.8323 14.4269 64.1015 13.8031C64.3764 13.1532 64.5181 12.4544 64.5181 11.7484C64.5181 11.0424 64.3764 10.3436 64.1015 9.69373C63.8323 9.06993 63.4486 8.5025 62.9703 8.02105C62.2275 7.28788 61.2857 6.79066 60.2627 6.59153C59.2398 6.3924 58.181 6.5002 57.2188 6.90145C55.9477 7.42777 54.9312 8.43047 54.3851 9.69661C54.1049 10.345 53.963 11.0451 53.9685 11.7518Z" fill="#1E1E1E"/>
<path id="Vector_3" d="M72.9456 11.7518C72.9357 10.1912 73.248 8.64552 73.8628 7.21203C75.0513 4.41515 77.2687 2.1856 80.0538 0.987146C81.4837 0.380468 83.0204 0.0678711 84.5728 0.0678711C86.1253 0.0678711 87.662 0.380468 89.0919 0.987146C90.4716 1.57759 91.7248 2.42968 92.7826 3.49665C93.8379 4.56689 94.6823 5.82743 95.2714 7.21203C95.8863 8.64552 96.1985 10.1912 96.1886 11.7518C96.1991 13.3083 95.8868 14.8501 95.2714 16.279C94.0856 19.0652 91.8711 21.2829 89.0919 22.4675C87.6622 23.0748 86.1254 23.3877 84.5728 23.3877C83.0203 23.3877 81.4835 23.0748 80.0538 22.4675C78.679 21.8756 77.4272 21.0302 76.3631 19.9752C75.302 18.9166 74.4532 17.6634 73.8628 16.2838C73.2468 14.8534 72.9344 13.31 72.9456 11.7518ZM79.2799 11.7518C79.2752 12.4572 79.4174 13.1559 79.6974 13.8031C79.9692 14.4292 80.3585 14.9971 80.8439 15.4758C81.3294 15.9534 81.9006 16.3345 82.5273 16.5992C83.1675 16.8709 83.8558 17.0098 84.5509 17.0075C85.2592 17.0121 85.9612 16.8743 86.6155 16.6021C87.2443 16.3419 87.816 15.9602 88.2979 15.4786C88.7794 14.9973 89.1655 14.4287 89.4358 13.8031C89.712 13.1535 89.8543 12.4546 89.8543 11.7484C89.8543 11.0422 89.712 10.3433 89.4358 9.69374C89.1663 9.06941 88.7816 8.50186 88.3018 8.02105C87.8195 7.54086 87.2478 7.16045 86.6193 6.90146C85.964 6.62797 85.2606 6.48974 84.5509 6.49503C83.8556 6.49154 83.1668 6.62982 82.5264 6.90146C81.8997 7.16577 81.3285 7.54662 80.8429 8.02393C80.3575 8.50264 79.9683 9.07051 79.6965 9.69662C79.4163 10.345 79.2744 11.0451 79.2799 11.7518Z" fill="#1E1E1E"/>
<path id="Vector_4" d="M117.548 15.8104C117.555 16.763 117.383 17.7083 117.041 18.5969C116.708 19.4456 116.222 20.2255 115.608 20.8975C114.987 21.5655 114.24 22.1036 113.411 22.481C112.528 22.8887 111.571 23.1087 110.6 23.1271H101.36C100.959 23.1354 100.561 23.0538 100.195 22.8884C99.8456 22.7303 99.5318 22.5019 99.2735 22.2174C99.0065 21.9166 98.8017 21.5657 98.6706 21.1851C98.5191 20.7622 98.4456 20.3153 98.4537 19.8661C98.4537 18.9075 98.7251 18.1474 99.2601 17.5895C99.7951 17.0316 100.502 16.7536 101.362 16.7536H109.883C110.036 16.7511 110.188 16.7351 110.338 16.7057C110.491 16.6763 110.638 16.6188 110.771 16.536C110.9 16.4521 111.009 16.3409 111.09 16.2101C111.182 16.0443 111.226 15.8562 111.218 15.6666C111.229 15.4722 111.185 15.2785 111.09 15.1087C111.007 14.9785 110.886 14.8766 110.744 14.8164C110.592 14.7499 110.431 14.7088 110.266 14.6946C110.09 14.6812 109.92 14.6745 109.765 14.6745H105.978C104.991 14.683 104.014 14.4691 103.12 14.0486C102.265 13.6495 101.5 13.0808 100.871 12.3769C100.239 11.6653 99.7383 10.8459 99.3938 9.95745C99.0362 9.05105 98.8546 8.0844 98.8588 7.10957C98.8532 6.17235 99.0422 5.24423 99.4139 4.38439C99.7727 3.5418 100.292 2.77759 100.943 2.13465C101.594 1.48843 102.361 0.970209 103.202 0.606704C104.08 0.229947 105.025 0.0381034 105.979 0.0430708H107.632C108.025 0.0348554 108.415 0.112471 108.775 0.270539C109.136 0.428607 109.457 0.663348 109.718 0.958495C109.986 1.25819 110.191 1.60939 110.321 1.99086C110.473 2.4142 110.547 2.86179 110.54 3.31176C110.54 4.26361 110.269 5.0247 109.734 5.58834C109.199 6.15197 108.492 6.4242 107.632 6.4242H106.094C105.864 6.42714 105.644 6.51682 105.478 6.67534C105.382 6.75992 105.307 6.86487 105.258 6.98249C105.208 7.10011 105.185 7.22739 105.191 7.35496C105.191 7.72209 105.287 7.96652 105.489 8.09689C105.652 8.21322 105.845 8.2798 106.044 8.2886H110.38C111.378 8.27999 112.365 8.49104 113.273 8.90687C114.132 9.30787 114.905 9.87347 115.549 10.5719C116.188 11.269 116.689 12.0824 117.025 12.9683C117.375 13.8744 117.553 14.8385 117.548 15.8104Z" fill="#1E1E1E"/>
<path id="Vector_5" d="M114.801 6.42043C116.568 6.42043 118.001 4.98317 118.001 3.21021C118.001 1.43726 116.568 0 114.801 0C113.034 0 111.602 1.43726 111.602 3.21021C111.602 4.98317 113.034 6.42043 114.801 6.42043Z" fill="#388392"/>
<path id="Vector_6" d="M43.4717 11.7215V12.0829C43.4716 12.4116 43.4069 12.737 43.2814 13.0407C43.1558 13.3443 42.9719 13.6201 42.74 13.8523C42.5082 14.0846 42.233 14.2687 41.9302 14.3942C41.6274 14.5197 41.3029 14.5841 40.9753 14.5838H29.9662C29.3046 14.5838 28.6701 14.3204 28.2019 13.8516C27.7337 13.3827 27.47 12.7466 27.4688 12.0829V11.7215C27.469 11.057 27.7322 10.4199 28.2005 9.95C28.6688 9.48015 29.3039 9.21608 29.9662 9.21583H40.9705C41.2989 9.21495 41.6242 9.27913 41.9278 9.40469C42.2314 9.53025 42.5073 9.71472 42.7397 9.94752C42.9721 10.1803 43.1564 10.4569 43.282 10.7613C43.4076 11.0657 43.4721 11.392 43.4717 11.7215Z" fill="#388392"/>
<path id="Vector_7" d="M69.4542 33.9522C69.0816 33.8084 68.8198 33.6611 68.6688 33.5103H68.6746C68.5297 33.3704 68.4145 33.2024 68.3362 33.0166C68.2579 32.8307 68.2179 32.6309 68.2188 32.4291C68.2156 32.1376 68.2995 31.8518 68.4596 31.6086C68.6238 31.3594 68.8375 31.147 69.0873 30.9845C69.356 30.808 69.6502 30.6741 69.9596 30.5877C70.2755 30.4948 70.603 30.4474 70.9322 30.4468C71.9252 30.4468 72.7764 30.8468 73.486 31.6469C73.5704 31.7539 73.6147 31.8872 73.6111 32.0236C73.6136 32.1059 73.5993 32.1878 73.5691 32.2643C73.5389 32.3408 73.4934 32.4103 73.4354 32.4684C73.3774 32.5266 73.3081 32.5723 73.2319 32.6026C73.1556 32.6329 73.074 32.6473 72.992 32.6448C72.8745 32.6477 72.7596 32.6094 72.6672 32.5364C72.5768 32.4638 72.4904 32.3864 72.4083 32.3045C72.2169 32.1069 71.9872 31.9509 71.7333 31.846C71.4794 31.7412 71.2067 31.6897 70.9322 31.6948C70.3589 31.6948 69.9029 31.8699 69.564 32.2201C69.5312 32.2551 69.5057 32.2964 69.4893 32.3416C69.4729 32.3867 69.4658 32.4348 69.4685 32.4828C69.4653 32.5325 69.4788 32.5819 69.5069 32.6231C69.5349 32.6643 69.5759 32.6948 69.6233 32.7099L72.4083 33.6302C72.7974 33.781 73.0595 33.9279 73.1946 34.0711H73.1879C73.3324 34.2112 73.4471 34.3792 73.5249 34.5651C73.6028 34.751 73.6422 34.9507 73.6407 35.1523C73.6448 35.4453 73.5606 35.7326 73.399 35.9767C73.2332 36.2245 73.0198 36.4367 72.7713 36.6007C72.5055 36.7781 72.2138 36.913 71.9067 37.0004C71.591 37.0908 71.2643 37.137 70.936 37.1375C69.9367 37.1375 69.0857 36.7416 68.3832 35.9499C68.2977 35.8387 68.2516 35.7021 68.2523 35.5616C68.2496 35.4794 68.2638 35.3974 68.294 35.3208C68.3242 35.2443 68.3697 35.1747 68.4277 35.1165C68.4857 35.0583 68.555 35.0126 68.6314 34.9824C68.7077 34.9521 68.7894 34.9378 68.8714 34.9405C68.9929 34.9371 69.1115 34.9783 69.2048 35.0565C69.2953 35.1338 69.3784 35.2086 69.4542 35.2808C69.6467 35.4783 69.8775 35.6342 70.1324 35.7388C70.3872 35.8435 70.6607 35.8948 70.936 35.8895C71.5035 35.8895 71.9599 35.7105 72.3051 35.3527C72.3646 35.285 72.3966 35.1975 72.3949 35.1073C72.397 35.0561 72.3823 35.0057 72.3532 34.9636C72.324 34.9215 72.282 34.8902 72.2334 34.8744L69.4542 33.9522Z" fill="#388392"/>
<path id="Vector_8" d="M76.7334 36.5135L74.5905 31.3449C74.5518 31.2563 74.5317 31.1608 74.5313 31.0641C74.5311 30.9821 74.5474 30.9009 74.579 30.8254C74.6097 30.751 74.6541 30.683 74.7099 30.625C74.7657 30.5672 74.8326 30.5216 74.9067 30.4908C75.002 30.4514 75.1054 30.4359 75.208 30.4458C75.3106 30.4556 75.4092 30.4905 75.4952 30.5474C75.6067 30.6219 75.6922 30.7295 75.7398 30.8551L77.4118 34.8619L79.0847 30.8436C79.1276 30.7317 79.1983 30.6328 79.2901 30.556C79.3994 30.4765 79.5328 30.4376 79.6675 30.4458C79.7514 30.4452 79.8346 30.4615 79.9121 30.4937C79.984 30.5253 80.049 30.5709 80.1032 30.6279C80.1592 30.6863 80.2045 30.7541 80.2369 30.8283C80.2708 30.9032 80.2881 30.9846 80.2875 31.0669C80.2852 31.164 80.2631 31.2596 80.2226 31.3478L76.8003 39.5818C76.7508 39.7029 76.6684 39.8075 76.5624 39.8838C76.4608 39.9594 76.3374 40.0001 76.2108 39.9998C76.1286 40.0023 76.0467 39.9877 75.9704 39.9568C75.8941 39.926 75.825 39.8795 75.7675 39.8205C75.7097 39.7616 75.6643 39.6916 75.6341 39.6147C75.6039 39.5378 75.5895 39.4555 75.5917 39.3729C75.5915 39.2782 75.6121 39.1846 75.6519 39.0987L76.7334 36.5135Z" fill="#388392"/>
<path id="Vector_9" d="M82.4269 33.9522C82.0543 33.8084 81.7925 33.6611 81.6416 33.5103H81.6473C81.5031 33.3701 81.3887 33.202 81.311 33.0161C81.2333 32.8303 81.194 32.6306 81.1954 32.4291C81.1922 32.1376 81.2761 31.8518 81.4362 31.6086C81.6004 31.3594 81.8141 31.147 82.0639 30.9845C82.3326 30.8082 82.6268 30.6743 82.9361 30.5877C83.2524 30.4948 83.5802 30.4474 83.9097 30.4468C84.9014 30.4468 85.7523 30.8468 86.4625 31.6469C86.547 31.7539 86.5913 31.8872 86.5877 32.0236C86.5902 32.1059 86.5759 32.1878 86.5457 32.2643C86.5155 32.3408 86.47 32.4103 86.412 32.4684C86.354 32.5266 86.2847 32.5723 86.2084 32.6026C86.1322 32.6329 86.0506 32.6473 85.9686 32.6448C85.851 32.6477 85.7361 32.6094 85.6437 32.5364C85.5534 32.4638 85.4669 32.3864 85.3848 32.3045C85.1936 32.107 84.964 31.9511 84.7103 31.8462C84.4565 31.7413 84.1841 31.6898 83.9097 31.6948C83.3365 31.6948 82.8801 31.8699 82.5406 32.2201C82.5077 32.2551 82.4823 32.2964 82.4659 32.3416C82.4494 32.3867 82.4424 32.4348 82.4451 32.4828C82.4419 32.5325 82.4554 32.5819 82.4834 32.6231C82.5115 32.6643 82.5525 32.6948 82.5998 32.7099L85.3848 33.6302C85.7734 33.781 86.0355 33.9279 86.1711 34.0711H86.1654C86.3096 34.2113 86.424 34.3795 86.5017 34.5653C86.5794 34.7511 86.6187 34.9508 86.6173 35.1523C86.6213 35.4451 86.5374 35.7324 86.3765 35.9767C86.2102 36.2241 85.9969 36.4361 85.7488 36.6007C85.4812 36.7773 85.1879 36.9112 84.8794 36.9976C84.564 37.0879 84.2377 37.1341 83.9097 37.1346C82.9091 37.1346 82.0578 36.7388 81.3559 35.947C81.2704 35.8358 81.2244 35.6992 81.225 35.5588C81.2224 35.4765 81.2366 35.3945 81.2667 35.318C81.2969 35.2414 81.3424 35.1718 81.4004 35.1136C81.4585 35.0554 81.5278 35.0097 81.6041 34.9795C81.6804 34.9492 81.7621 34.935 81.8441 34.9376C81.9656 34.9342 82.0842 34.9755 82.1776 35.0536C82.2731 35.1313 82.3524 35.206 82.4269 35.2779C82.6196 35.4755 82.8506 35.6314 83.1056 35.7361C83.3606 35.8408 83.6342 35.892 83.9097 35.8866C84.4759 35.8866 84.932 35.7077 85.2778 35.3498C85.3377 35.2824 85.3698 35.1947 85.3676 35.1044C85.3698 35.0534 85.3553 35.003 85.3263 34.9609C85.2973 34.9189 85.2555 34.8875 85.2071 34.8715L82.4269 33.9522Z" fill="#388392"/>
<path id="Vector_10" d="M88.1047 30.4468H88.3846V28.2018C88.3833 28.1201 88.3988 28.0389 88.43 27.9634C88.4612 27.8879 88.5076 27.8196 88.5662 27.7628C88.6237 27.7036 88.6927 27.6569 88.769 27.6256C88.8452 27.5943 88.9271 27.579 89.0095 27.5807C89.1736 27.5809 89.3309 27.6465 89.447 27.7629C89.563 27.8793 89.6283 28.0372 89.6286 28.2018V30.4468H90.3728C90.4537 30.4455 90.534 30.4611 90.6087 30.4924C90.6833 30.5238 90.7507 30.5702 90.8066 30.6289C90.9211 30.7473 90.9851 30.9058 90.9851 31.0708C90.9851 31.2358 90.9211 31.3943 90.8066 31.5127C90.7508 31.5716 90.6835 31.6182 90.6088 31.6495C90.5341 31.6809 90.4538 31.6963 90.3728 31.6948H89.6286V34.6999C89.6286 35.4917 90.0254 35.8876 90.819 35.8876C90.9 35.8864 90.9804 35.902 91.0552 35.9333C91.13 35.9647 91.1976 36.0111 91.2537 36.0697C91.3682 36.1881 91.4323 36.3466 91.4323 36.5116C91.4323 36.6766 91.3682 36.8351 91.2537 36.9535C91.1977 37.0123 91.1302 37.0588 91.0553 37.0902C90.9805 37.1215 90.9001 37.137 90.819 37.1356C89.1955 37.1356 88.384 36.3237 88.3846 34.6999V31.6948H88.1047C88.0243 31.6957 87.9445 31.68 87.8704 31.6487C87.7963 31.6174 87.7294 31.5711 87.6738 31.5127C87.5575 31.3953 87.4922 31.2364 87.4922 31.0708C87.4922 30.9052 87.5575 30.7464 87.6738 30.6289C87.7295 30.5707 87.7964 30.5246 87.8705 30.4932C87.9446 30.4619 88.0243 30.4461 88.1047 30.4468Z" fill="#388392"/>
<path id="Vector_11" d="M97.0009 35.254C97.0829 35.2514 97.1645 35.2658 97.2408 35.2961C97.317 35.3264 97.3863 35.3721 97.4443 35.4303C97.5023 35.4885 97.5478 35.5579 97.578 35.6344C97.6082 35.7109 97.6225 35.7928 97.62 35.8751C97.6217 35.9579 97.6067 36.0402 97.576 36.1171C97.5453 36.194 97.4995 36.2639 97.4414 36.3227C97.0342 36.6754 96.5481 36.9239 96.0245 37.0472C95.5008 37.1705 94.9552 37.1647 94.4343 37.0306C93.9133 36.8964 93.4324 36.6377 93.0327 36.2767C92.633 35.9156 92.3263 35.4629 92.1388 34.9571C91.9513 34.4513 91.8886 33.9075 91.956 33.3721C92.0234 32.8367 92.2189 32.3257 92.5258 31.8826C92.8328 31.4394 93.242 31.0774 93.7187 30.8274C94.1953 30.5774 94.7252 30.4468 95.263 30.4468C95.9216 30.4508 96.5646 30.6476 97.1133 31.013C97.662 31.3784 98.0924 31.8965 98.3519 32.5038C98.5175 32.9125 98.6006 33.3501 98.5964 33.7912C98.5987 33.8739 98.5837 33.9562 98.5524 34.0328C98.5212 34.1094 98.4743 34.1786 98.4149 34.236C98.3564 34.2934 98.287 34.3386 98.2109 34.3688C98.1348 34.3991 98.0535 34.4139 97.9716 34.4123H93.2577C93.3888 34.8404 93.6551 35.2142 94.0162 35.4773C94.1942 35.6075 94.3911 35.7093 94.6 35.7792C94.8137 35.8513 95.0377 35.8875 95.263 35.8866C95.5083 35.8896 95.7521 35.8494 95.9834 35.7677C96.2054 35.6857 96.4109 35.5642 96.5901 35.4092C96.7049 35.3112 96.8502 35.2563 97.0009 35.254ZM97.2694 33.1662C97.2032 32.9507 97.1015 32.7479 96.9684 32.5662C96.7061 32.2072 96.3387 31.9391 95.9175 31.7993C95.4896 31.6561 95.0269 31.6561 94.599 31.7993C94.3884 31.8694 94.1897 31.9712 94.0096 32.1013C93.8309 32.2306 93.6742 32.3879 93.5452 32.5671C93.4158 32.749 93.3188 32.952 93.2586 33.1672L97.2694 33.1662Z" fill="#388392"/>
<path id="Vector_12" d="M108.959 36.5075C108.961 36.5902 108.946 36.6723 108.915 36.7489C108.884 36.8254 108.837 36.8946 108.778 36.9523C108.661 37.0688 108.503 37.1343 108.339 37.1343C108.174 37.1343 108.016 37.0688 107.9 36.9523C107.842 36.894 107.796 36.8246 107.766 36.7481C107.735 36.6717 107.72 36.5898 107.722 36.5075V33.1104C107.723 32.9235 107.685 32.7384 107.611 32.5669C107.54 32.3988 107.439 32.2457 107.311 32.1154C107.183 31.9847 107.03 31.8805 106.861 31.8087C106.686 31.7321 106.497 31.6932 106.305 31.6946C106.117 31.6935 105.93 31.7324 105.758 31.8087C105.59 31.8812 105.438 31.9842 105.308 32.1125C105.179 32.2409 105.076 32.3928 105.005 32.5602C104.931 32.7341 104.894 32.9214 104.895 33.1104V36.5075C104.897 36.5902 104.881 36.6722 104.85 36.7487C104.819 36.8252 104.772 36.8945 104.714 36.9523C104.626 37.04 104.515 37.0997 104.394 37.1238C104.273 37.1479 104.148 37.1353 104.034 37.0876C103.92 37.0399 103.823 36.9593 103.754 36.856C103.686 36.7527 103.65 36.6314 103.651 36.5075V33.1104C103.652 32.921 103.614 32.7335 103.537 32.5602C103.465 32.3936 103.362 32.2419 103.235 32.1125C103.106 31.9838 102.954 31.8807 102.788 31.8087C102.615 31.7324 102.429 31.6935 102.24 31.6946C102.052 31.6937 101.866 31.7312 101.693 31.8048C101.354 31.9503 101.085 32.2207 100.94 32.5602C100.866 32.7341 100.828 32.9214 100.83 33.1104V36.5075C100.831 36.5902 100.816 36.6722 100.785 36.7487C100.754 36.8252 100.707 36.8945 100.648 36.9523C100.592 37.0111 100.524 37.0576 100.448 37.0889C100.373 37.1202 100.292 37.1357 100.211 37.1344C100.129 37.1351 100.047 37.1193 99.9709 37.088C99.8948 37.0567 99.8257 37.0106 99.7676 36.9522C99.7094 36.8939 99.6634 36.8245 99.6322 36.7482C99.601 36.6718 99.5853 36.59 99.586 36.5075V31.0677C99.5862 30.903 99.6515 30.7452 99.7676 30.6288C99.8836 30.5123 100.041 30.4468 100.205 30.4465C100.337 30.4447 100.467 30.4857 100.574 30.5635C100.679 30.6385 100.756 30.7464 100.794 30.8702C101.223 30.5868 101.726 30.4392 102.24 30.4465C102.625 30.4441 103.007 30.5245 103.359 30.6824C103.716 30.8452 104.03 31.0898 104.276 31.3965C104.827 30.7626 105.503 30.4459 106.305 30.4465C106.659 30.4451 107.008 30.5172 107.332 30.6584C107.969 30.9315 108.476 31.4407 108.748 32.0799C108.889 32.4049 108.961 32.7559 108.959 33.1104V36.5075Z" fill="#388392"/>
<path id="Vector_13" d="M111.239 33.9522C110.867 33.8084 110.605 33.6611 110.454 33.5103H110.46C110.315 33.3702 110.201 33.2021 110.123 33.0163C110.046 32.8304 110.006 32.6306 110.008 32.4291C110.005 32.1376 110.089 31.8518 110.249 31.6086C110.413 31.3594 110.627 31.147 110.876 30.9845C111.145 30.808 111.439 30.6741 111.749 30.5877C112.065 30.4948 112.392 30.4474 112.721 30.4468C113.713 30.4468 114.564 30.8468 115.275 31.6469C115.359 31.7539 115.403 31.8873 115.399 32.0236C115.402 32.1058 115.388 32.1877 115.358 32.2642C115.327 32.3407 115.282 32.4102 115.224 32.4684C115.166 32.5266 115.097 32.5723 115.021 32.6026C114.945 32.6329 114.863 32.6473 114.781 32.6448C114.664 32.6477 114.549 32.6094 114.456 32.5364C114.366 32.4641 114.279 32.3866 114.197 32.3045C114.006 32.1069 113.776 31.9509 113.522 31.846C113.268 31.7412 112.996 31.6897 112.721 31.6948C112.148 31.6948 111.692 31.8699 111.352 32.2201C111.319 32.2552 111.294 32.2965 111.278 32.3417C111.261 32.3868 111.254 32.4348 111.257 32.4828C111.253 32.5325 111.267 32.5819 111.295 32.6231C111.323 32.6643 111.364 32.6948 111.411 32.7099L114.196 33.6302C114.585 33.781 114.847 33.9279 114.982 34.0711H114.976C115.121 34.2112 115.235 34.3792 115.313 34.5651C115.391 34.751 115.43 34.9507 115.429 35.1523C115.433 35.4453 115.349 35.7326 115.187 35.9767C115.021 36.2245 114.808 36.4367 114.559 36.6007C114.294 36.7781 114.002 36.913 113.695 37.0004C113.379 37.0908 113.052 37.137 112.724 37.1375C111.725 37.1375 110.874 36.7416 110.171 35.9499C110.085 35.8389 110.039 35.7021 110.04 35.5616C110.038 35.4794 110.052 35.3974 110.082 35.3208C110.112 35.2443 110.158 35.1747 110.216 35.1165C110.274 35.0583 110.343 35.0126 110.419 34.9824C110.496 34.9521 110.577 34.9378 110.659 34.9405C110.781 34.937 110.899 34.9783 110.992 35.0565C111.087 35.1341 111.167 35.2089 111.242 35.2808C111.435 35.4783 111.666 35.6342 111.92 35.7388C112.175 35.8435 112.449 35.8948 112.724 35.8895C113.292 35.8895 113.748 35.7105 114.093 35.3527C114.152 35.2849 114.184 35.1974 114.182 35.1073C114.184 35.0562 114.17 35.0059 114.141 34.9638C114.112 34.9218 114.07 34.8904 114.022 34.8744L111.239 33.9522Z" fill="#388392"/>
</g>
</svg>
